<?xml version="1.0" encoding="utf-8"?>
<!-- Generator: Moho 12.5 build 22438 -->
<!DOCTYPE svg PUBLIC "-//W3C//DTD SVG 1.1//EN" "http://www.w3.org/Graphics/SVG/1.1/DTD/svg11.dtd">
<svg version="1.1" id="Frame_0" xmlns="http://www.w3.org/2000/svg" xmlns:xlink="http://www.w3.org/1999/xlink" width="1280px" height="720px">
<g id="Layer_5">
<g id="Layer_8">
<path fill="#769c37" fill-rule="evenodd" stroke="none" d="M 905.277 238.551 C 900.946 232.241 894.673 224.184 890.128 218.026 C 890.128 218.027 886.107 226.821 884.752 230.732 C 883.608 234.037 882.123 238.506 881.657 241.972 C 880.863 247.881 881.051 255.956 881.983 261.845 C 883.249 269.844 886.680 280.255 890.128 287.583 C 892.391 292.392 896.407 298.302 899.576 302.569 C 913.789 321.710 933.171 348.164 952.998 361.404 C 957.256 364.248 963.999 366.066 968.714 368.064 C 967.339 361.428 966.055 352.442 964.131 345.944 C 961.944 338.557 958.011 329.020 954.759 322.036 C 949.838 311.467 941.857 298.082 936.016 287.992 C 932.108 281.242 926.654 272.384 922.544 265.755 C 917.451 257.539 910.747 246.521 905.277 238.551 M 968.714 368.064 C 968.714 368.064 968.714 368.064 968.714 368.064 Z"/>
<path fill="none" stroke="#769c37" stroke-width="1" stroke-linecap="round" stroke-linejoin="round" d="M 890.128 218.026 C 890.128 218.026 890.128 218.026 890.128 218.026 C 894.673 224.184 900.946 232.241 905.277 238.551 C 910.747 246.521 917.451 257.539 922.544 265.755 C 926.654 272.384 932.108 281.242 936.016 287.992 C 941.857 298.082 949.838 311.467 954.759 322.036 C 958.011 329.020 961.944 338.557 964.131 345.944 C 966.055 352.442 967.339 361.428 968.714 368.064 C 968.714 368.064 968.714 368.064 968.714 368.064 C 963.999 366.066 957.256 364.248 952.998 361.404 C 933.171 348.164 913.789 321.710 899.576 302.569 C 896.407 298.302 892.391 292.392 890.128 287.583 C 886.680 280.255 883.249 269.844 881.983 261.845 C 881.051 255.956 880.863 247.881 881.657 241.972 C 882.123 238.506 883.608 234.037 884.752 230.732 C 886.107 226.821 890.128 218.027 890.128 218.026 "/>
<path fill="#315106" fill-rule="evenodd" stroke="none" d="M 741.672 300.201 C 741.295 298.660 740.965 296.567 740.662 295.009 C 740.664 295.009 748.186 297.176 751.336 298.326 C 767.988 304.408 789.541 314.253 805.425 322.125 C 819.065 328.885 837.166 338.228 849.850 346.646 C 867.663 358.467 889.037 377.516 905.567 391.073 C 912.712 396.933 922.203 404.795 929.153 410.885 C 933.566 414.752 939.216 420.167 943.613 424.053 C 946.773 426.846 951.077 430.467 954.276 433.215 C 945.233 429.331 933.108 424.308 924.133 420.268 C 907.653 412.850 886.247 401.721 869.688 394.478 C 862.596 391.376 852.842 387.941 845.791 384.747 C 838.967 381.657 830.173 376.900 823.458 373.581 C 815.760 369.776 805.231 365.213 797.737 361.019 C 789.381 356.344 778.246 349.914 770.819 343.872 C 766.051 339.994 760.243 334.120 756.384 329.337 C 752.594 324.638 747.940 317.948 745.422 312.462 C 743.818 308.966 742.587 303.937 741.672 300.201 M 954.276 433.215 C 954.276 433.215 954.276 433.215 954.276 433.215 Z"/>
<path fill="none" stroke="#315106" stroke-width="1" stroke-linecap="round" stroke-linejoin="round" d="M 740.662 295.009 C 740.662 295.009 740.662 295.009 740.662 295.009 C 740.965 296.567 741.295 298.660 741.672 300.201 C 742.587 303.937 743.818 308.966 745.422 312.462 C 747.940 317.948 752.594 324.638 756.384 329.337 C 760.243 334.120 766.051 339.994 770.819 343.872 C 778.246 349.914 789.381 356.344 797.737 361.019 C 805.231 365.213 815.760 369.776 823.458 373.581 C 830.173 376.900 838.967 381.657 845.791 384.747 C 852.842 387.941 862.596 391.376 869.688 394.478 C 886.247 401.721 907.653 412.850 924.133 420.268 C 933.108 424.308 945.233 429.331 954.276 433.215 C 954.276 433.215 954.276 433.215 954.276 433.215 C 951.077 430.467 946.773 426.846 943.613 424.053 C 939.216 420.167 933.566 414.752 929.153 410.885 C 922.203 404.795 912.712 396.933 905.567 391.073 C 889.037 377.516 867.663 358.467 849.850 346.646 C 837.166 338.228 819.065 328.885 805.425 322.125 C 789.541 314.253 767.988 304.408 751.336 298.326 C 748.186 297.176 740.664 295.009 740.662 295.009 "/>
<path fill="#769c37" fill-rule="evenodd" stroke="none" d="M 726.852 440.091 C 719.720 442.214 710.430 445.733 703.392 448.151 C 703.393 448.152 711.239 454.874 714.878 457.386 C 718.433 459.839 723.334 462.953 727.294 464.680 C 730.352 466.014 734.625 467.461 737.926 467.940 C 746.250 469.147 757.569 467.654 765.941 466.853 C 796.474 463.933 837.015 457.359 866.767 449.904 C 878.717 446.909 894.905 442.955 905.848 437.297 C 908.603 435.872 911.793 433.169 914.341 431.400 C 909.384 429.161 903.019 425.525 897.817 423.934 C 888.051 420.947 874.354 419.536 864.171 418.758 C 854.058 417.985 840.479 418.041 830.362 418.758 C 823.914 419.215 815.385 420.595 809.010 421.670 C 794.191 424.168 774.603 428.460 759.954 431.816 C 749.976 434.102 736.663 437.171 726.852 440.091 M 914.341 431.400 C 914.341 431.400 914.341 431.400 914.341 431.400 Z"/>
<path fill="none" stroke="#769c37" stroke-width="1" stroke-linecap="round" stroke-linejoin="round" d="M 703.392 448.151 C 703.392 448.151 703.392 448.151 703.392 448.151 C 710.430 445.733 719.720 442.214 726.852 440.091 C 736.663 437.171 749.976 434.102 759.954 431.816 C 774.603 428.460 794.191 424.168 809.010 421.670 C 815.385 420.595 823.914 419.215 830.362 418.758 C 840.479 418.041 854.058 417.985 864.171 418.758 C 874.354 419.536 888.051 420.947 897.817 423.934 C 903.019 425.525 909.384 429.161 914.341 431.400 C 914.341 431.400 914.341 431.400 914.341 431.400 C 911.793 433.169 908.603 435.872 905.848 437.297 C 894.905 442.955 878.717 446.909 866.767 449.904 C 837.015 457.359 796.474 463.933 765.941 466.853 C 757.569 467.654 746.250 469.147 737.926 467.940 C 734.625 467.461 730.352 466.014 727.294 464.680 C 723.334 462.953 718.433 459.839 714.878 457.386 C 711.239 454.874 703.393 448.152 703.392 448.151 "/>
<path fill="#5e7d2d" fill-rule="evenodd" stroke="none" d="M 912.611 256.812 C 907.038 248.395 898.934 237.635 893.072 229.417 C 893.072 229.418 888.721 237.869 887.544 241.749 C 885.764 247.620 884.626 255.820 884.355 261.949 C 884.204 265.363 884.473 269.946 884.993 273.324 C 886.077 280.373 888.750 289.575 891.197 296.274 C 892.945 301.062 896.041 307.138 898.290 311.712 C 907.625 330.700 921.694 355.183 931.516 373.923 C 938.783 387.789 947.934 406.560 955.401 420.320 C 960.206 429.173 967.056 440.731 972.003 449.506 C 973.423 452.025 975.298 455.395 976.710 457.918 C 976.186 454.908 975.285 450.923 974.963 447.885 C 974.115 439.886 974.175 429.124 974.279 421.080 C 974.364 414.508 975.625 405.766 975.373 399.198 C 975.181 394.203 974.199 387.584 973.345 382.659 C 971.911 374.391 969.761 363.347 967.055 355.403 C 963.498 344.962 956.642 331.848 951.540 322.068 C 946.448 312.303 938.750 299.780 933.113 290.320 C 927.080 280.196 919.117 266.638 912.611 256.812 M 976.710 457.918 C 976.710 457.918 976.710 457.918 976.710 457.918 Z"/>
<path fill="none" stroke="#5e7d2d" stroke-width="1" stroke-linecap="round" stroke-linejoin="round" d="M 893.072 229.417 C 893.072 229.417 893.072 229.417 893.072 229.417 C 898.934 237.635 907.038 248.395 912.611 256.812 C 919.117 266.638 927.080 280.196 933.113 290.320 C 938.750 299.780 946.448 312.303 951.540 322.068 C 956.642 331.848 963.498 344.962 967.055 355.403 C 969.761 363.347 971.911 374.391 973.345 382.659 C 974.199 387.584 975.181 394.203 975.373 399.198 C 975.625 405.766 974.364 414.508 974.279 421.080 C 974.175 429.124 974.115 439.886 974.963 447.885 C 975.285 450.923 976.186 454.908 976.710 457.918 C 976.710 457.918 976.710 457.918 976.710 457.918 C 975.298 455.395 973.423 452.025 972.003 449.506 C 967.056 440.731 960.206 429.173 955.401 420.320 C 947.934 406.560 938.783 387.789 931.516 373.923 C 921.694 355.183 907.625 330.700 898.290 311.712 C 896.041 307.138 892.945 301.062 891.197 296.274 C 888.750 289.575 886.077 280.373 884.993 273.324 C 884.473 269.946 884.204 265.363 884.355 261.949 C 884.626 255.820 885.764 247.620 887.544 241.749 C 888.721 237.869 893.072 229.418 893.072 229.417 "/>
<path fill="#456117" fill-rule="evenodd" stroke="none" d="M 795.052 313.785 C 781.000 308.390 761.944 302.065 747.755 297.042 C 747.755 297.042 748.264 300.472 748.666 301.899 C 749.823 306.009 751.769 311.450 753.978 315.104 C 759.049 323.493 768.377 333.030 775.836 339.390 C 783.102 345.585 794.248 351.977 802.550 356.693 C 810.412 361.160 821.359 366.260 829.568 370.051 C 839.884 374.814 853.994 380.362 864.382 384.965 C 873.893 389.180 886.512 394.941 895.911 399.401 C 902.641 402.594 911.607 406.878 918.207 410.332 C 923.829 413.274 931.332 417.215 936.690 420.613 C 940.969 423.327 946.311 427.485 950.434 430.430 C 948.657 428.321 946.261 425.531 944.511 423.399 C 940.534 418.553 935.298 412.035 931.494 407.051 C 927.432 401.731 922.615 394.177 918.324 389.039 C 914.433 384.379 908.828 378.508 904.398 374.356 C 898.892 369.195 890.973 362.954 885.023 358.311 C 881.396 355.480 876.572 351.663 872.689 349.193 C 864.580 344.037 853.048 338.351 844.362 334.243 C 829.884 327.396 810.003 319.525 795.052 313.785 M 950.434 430.430 C 950.434 430.430 950.434 430.430 950.434 430.430 Z"/>
<path fill="none" stroke="#456117" stroke-width="1" stroke-linecap="round" stroke-linejoin="round" d="M 747.755 297.042 C 747.755 297.042 747.755 297.042 747.755 297.042 C 761.944 302.065 781.000 308.390 795.052 313.785 C 810.003 319.525 829.884 327.396 844.362 334.243 C 853.048 338.351 864.580 344.037 872.689 349.193 C 876.572 351.663 881.396 355.480 885.023 358.311 C 890.973 362.954 898.892 369.195 904.398 374.356 C 908.828 378.508 914.433 384.379 918.324 389.039 C 922.615 394.177 927.432 401.731 931.494 407.051 C 935.298 412.035 940.534 418.553 944.511 423.399 C 946.261 425.531 948.657 428.321 950.434 430.430 C 950.434 430.430 950.434 430.430 950.434 430.430 C 946.311 427.485 940.969 423.327 936.690 420.613 C 931.332 417.215 923.829 413.274 918.207 410.332 C 911.607 406.878 902.641 402.594 895.911 399.401 C 886.512 394.941 873.893 389.180 864.382 384.965 C 853.994 380.362 839.884 374.814 829.568 370.051 C 821.359 366.260 810.412 361.160 802.550 356.693 C 794.248 351.977 783.102 345.585 775.836 339.390 C 768.377 333.030 759.049 323.493 753.978 315.104 C 751.769 311.450 749.823 306.009 748.666 301.899 C 748.264 300.472 747.755 297.042 747.755 297.042 "/>
<path fill="#5e7d2d" fill-rule="evenodd" stroke="none" d="M 728.182 447.372 C 724.429 448.559 719.495 450.355 715.772 451.634 C 715.773 451.635 722.825 458.324 726.176 460.784 C 729.390 463.143 733.777 466.350 737.535 467.680 C 743.330 469.732 751.754 469.646 757.888 470.059 C 764.267 470.488 772.806 470.633 779.197 470.435 C 787.040 470.192 797.487 469.323 805.268 468.304 C 816.717 466.806 831.741 463.288 843.118 461.313 C 852.194 459.737 864.330 457.840 873.424 456.372 C 881.773 455.025 892.920 453.329 901.259 451.925 C 908.810 450.653 918.881 448.961 926.393 447.478 C 931.938 446.383 939.223 444.372 944.805 443.484 C 947.737 443.017 951.729 442.979 954.644 442.412 C 955.429 442.260 956.448 441.936 957.221 441.731 C 952.813 441.114 946.859 440.699 942.527 439.673 C 936.045 438.137 927.828 434.618 921.549 432.396 C 916.662 430.667 910.310 427.845 905.295 426.537 C 898.128 424.668 888.290 423.327 880.914 422.663 C 870.860 421.757 857.346 421.434 847.272 422.068 C 834.137 422.893 816.818 426.110 803.880 428.521 C 790.167 431.076 772.029 435.264 758.515 438.723 C 749.347 441.069 737.203 444.517 728.182 447.372 M 957.221 441.731 C 957.221 441.731 957.221 441.731 957.221 441.731 Z"/>
<path fill="none" stroke="#5e7d2d" stroke-width="1" stroke-linecap="round" stroke-linejoin="round" d="M 715.772 451.634 C 715.772 451.634 715.772 451.634 715.772 451.634 C 719.495 450.355 724.429 448.559 728.182 447.372 C 737.203 444.517 749.347 441.069 758.515 438.723 C 772.029 435.264 790.167 431.076 803.880 428.521 C 816.818 426.110 834.137 422.893 847.272 422.068 C 857.346 421.434 870.860 421.757 880.914 422.663 C 888.290 423.327 898.128 424.668 905.295 426.537 C 910.310 427.845 916.662 430.667 921.549 432.396 C 927.828 434.618 936.045 438.137 942.527 439.673 C 946.859 440.699 952.813 441.114 957.221 441.731 C 957.221 441.731 957.221 441.731 957.221 441.731 C 956.448 441.936 955.429 442.260 954.644 442.412 C 951.729 442.979 947.737 443.017 944.805 443.484 C 939.223 444.372 931.938 446.383 926.393 447.478 C 918.881 448.961 908.810 450.653 901.259 451.925 C 892.920 453.329 881.773 455.025 873.424 456.372 C 864.330 457.840 852.194 459.737 843.118 461.313 C 831.741 463.288 816.717 466.806 805.268 468.304 C 797.487 469.323 787.040 470.192 779.197 470.435 C 772.806 470.633 764.267 470.488 757.888 470.059 C 751.754 469.646 743.330 469.732 737.535 467.680 C 733.777 466.350 729.390 463.143 726.176 460.784 C 722.825 458.324 715.773 451.635 715.772 451.634 "/>
<path fill="#9db022" fill-rule="evenodd" stroke="none" d="M 921.735 311.652 C 919.118 307.472 914.805 302.464 911.835 298.527 C 911.836 298.527 917.826 302.710 919.955 304.978 C 924.719 310.052 929.272 318.303 932.747 324.333 C 936.265 330.436 940.386 338.901 943.204 345.357 C 948.203 356.815 953.760 372.562 957.705 384.425 C 961.073 394.550 964.788 408.294 967.801 418.531 C 969.202 423.291 971.282 429.582 972.450 434.405 C 973.349 438.115 974.228 443.134 974.887 446.893 C 975.319 449.353 976.182 455.117 976.182 455.117 C 972.626 449.902 971.284 441.227 969.252 435.252 C 964.721 421.928 959.050 404.038 954.560 390.701 C 951.291 380.992 947.214 367.939 943.474 358.402 C 939.713 348.812 934.015 336.299 929.570 327.007 C 927.338 322.342 924.480 316.035 921.735 311.652 Z"/>
<path fill="none" stroke="#9db022" stroke-width="1" stroke-linecap="round" stroke-linejoin="round" d="M 911.835 298.527 C 911.835 298.527 911.835 298.527 911.835 298.527 C 914.805 302.464 919.118 307.472 921.735 311.652 C 924.480 316.035 927.338 322.342 929.570 327.007 C 934.015 336.299 939.713 348.812 943.474 358.402 C 947.214 367.939 951.291 380.992 954.560 390.701 C 959.050 404.038 964.721 421.928 969.252 435.252 C 971.284 441.227 972.626 449.902 976.182 455.117 C 976.182 455.117 975.319 449.353 974.887 446.893 C 974.228 443.134 973.349 438.115 972.450 434.405 C 971.282 429.582 969.202 423.291 967.801 418.531 C 964.788 408.294 961.073 394.550 957.705 384.425 C 953.760 372.562 948.203 356.815 943.204 345.357 C 940.386 338.901 936.265 330.436 932.747 324.333 C 929.272 318.303 924.719 310.052 919.955 304.978 C 917.826 302.710 911.836 298.527 911.835 298.527 "/>
<path fill="#6d8700" fill-rule="evenodd" stroke="none" d="M 816.221 348.443 C 814.276 347.891 811.630 347.353 809.662 346.885 C 809.662 346.885 810.973 345.928 811.630 345.738 C 813.378 345.231 815.896 345.550 817.697 345.820 C 823.558 346.699 830.976 349.746 836.471 351.968 C 844.271 355.124 854.319 360.199 861.639 364.348 C 865.776 366.693 871.021 370.274 875.002 372.874 C 883.341 378.319 894.436 385.620 902.574 391.359 C 909.364 396.148 918.269 402.745 924.839 407.832 C 928.893 410.972 934.259 415.215 938.141 418.564 C 941.329 421.314 945.644 424.943 948.472 428.062 C 949.068 428.719 950.300 430.386 950.300 430.386 C 950.433 430.030 949.524 429.956 949.201 429.755 C 938.441 423.070 924.961 412.838 914.504 405.687 C 906.932 400.508 896.812 393.639 889.157 388.584 C 880.389 382.793 868.730 375.012 859.736 369.579 C 855.575 367.064 849.937 363.858 845.653 361.560 C 839.904 358.478 832.256 354.283 826.223 351.804 C 823.295 350.601 819.266 349.308 816.221 348.443 Z"/>
<path fill="none" stroke="#6d8700" stroke-width="1" stroke-linecap="round" stroke-linejoin="round" d="M 809.662 346.885 C 809.662 346.885 809.662 346.885 809.662 346.885 C 811.630 347.353 814.276 347.891 816.221 348.443 C 819.266 349.308 823.295 350.601 826.223 351.804 C 832.256 354.283 839.904 358.478 845.653 361.560 C 849.937 363.858 855.575 367.064 859.736 369.579 C 868.730 375.012 880.389 382.793 889.157 388.584 C 896.812 393.639 906.932 400.508 914.504 405.687 C 924.961 412.838 938.441 423.070 949.201 429.755 C 949.524 429.956 950.433 430.030 950.300 430.386 C 950.300 430.386 949.068 428.719 948.472 428.062 C 945.644 424.943 941.329 421.314 938.141 418.564 C 934.259 415.215 928.893 410.972 924.839 407.832 C 918.269 402.745 909.364 396.148 902.574 391.359 C 894.436 385.620 883.341 378.319 875.002 372.874 C 871.021 370.274 865.776 366.693 861.639 364.348 C 854.319 360.199 844.271 355.124 836.471 351.968 C 830.976 349.746 823.558 346.699 817.697 345.820 C 815.896 345.550 813.378 345.231 811.630 345.738 C 810.973 345.928 809.662 346.885 809.662 346.885 "/>
<path fill="#9eb123" fill-rule="evenodd" stroke="none" d="M 801.227 444.543 C 797.253 445.891 792.341 448.659 788.532 450.423 C 788.533 450.423 796.061 448.243 799.357 447.617 C 810.565 445.487 825.792 444.372 837.176 443.607 C 850.301 442.726 867.856 442.598 881.009 442.405 C 894.542 442.206 912.589 442.331 926.124 442.320 C 932.687 442.314 941.444 442.574 948.002 442.320 C 950.687 442.215 954.249 441.757 956.934 441.679 C 956.934 441.679 955.179 441.140 955.179 441.140 C 949.684 440.591 942.410 439.398 936.915 438.849 C 928.493 438.009 917.231 437.172 908.775 436.820 C 902.275 436.549 893.598 436.537 887.093 436.543 C 877.168 436.551 863.926 436.550 854.014 437.059 C 845.173 437.513 833.370 438.288 824.614 439.598 C 817.522 440.660 808.019 442.240 801.227 444.543 Z"/>
<path fill="none" stroke="#9eb123" stroke-width="1" stroke-linecap="round" stroke-linejoin="round" d="M 788.532 450.423 C 788.532 450.423 788.532 450.423 788.532 450.423 C 792.341 448.659 797.253 445.891 801.227 444.543 C 808.019 442.240 817.522 440.660 824.614 439.598 C 833.370 438.288 845.173 437.513 854.014 437.059 C 863.926 436.550 877.168 436.551 887.093 436.543 C 893.598 436.537 902.275 436.549 908.775 436.820 C 917.231 437.172 928.493 438.009 936.915 438.849 C 942.410 439.398 949.684 440.591 955.179 441.140 C 955.179 441.140 956.934 441.679 956.934 441.679 C 956.970 441.678 957.052 441.679 957.052 441.679 C 954.249 441.757 950.687 442.215 948.002 442.320 C 941.444 442.574 932.687 442.314 926.124 442.320 C 912.589 442.331 894.542 442.206 881.009 442.405 C 867.856 442.598 850.301 442.726 837.176 443.607 C 825.792 444.372 810.565 445.487 799.357 447.617 C 796.061 448.243 788.533 450.423 788.532 450.423 "/>
</g>
<path fill="#899c0f" fill-rule="evenodd" stroke="#899c0f" stroke-width="1" stroke-linecap="round" stroke-linejoin="round" d="M 1023.800 450.407 C 1051.737 442.640 1080.224 466.228 1104.448 526.418 C 1128.530 586.255 1123.461 621.157 1099.031 636.458 C 1074.971 651.526 1030.828 649.369 999.015 594.385 C 956.180 520.352 986.972 460.645 1023.800 450.407 Z"/>
<path fill="#9db022" fill-rule="evenodd" stroke="#9db022" stroke-width="1" stroke-linecap="round" stroke-linejoin="round" d="M 1034.570 448.854 C 1039.330 447.960 1047.660 449.032 1053.002 450.546 C 1063.182 453.432 1075.941 460.389 1084.191 467.014 C 1095.554 476.136 1107.481 492.052 1115.143 504.446 C 1118.749 510.279 1122.422 518.733 1124.775 525.173 C 1126.752 530.585 1128.710 538.046 1129.869 543.690 C 1130.764 548.054 1131.639 553.951 1131.936 558.396 C 1132.180 562.047 1132.133 563.456 1131.896 570.591 C 1131.547 581.072 1131.570 583.158 1130.723 588.464 C 1129.848 593.944 1128.096 601.194 1126.116 606.378 C 1124.429 610.792 1121.579 616.484 1118.918 620.389 C 1116.595 623.797 1113.041 628.103 1109.868 630.739 C 1103.906 635.691 1093.957 641.947 1087.360 643.420 C 1079.746 645.121 1066.241 643.434 1057.643 640.964 C 1052.684 639.539 1046.535 636.189 1042.207 633.379 C 1037.239 630.154 1031.296 624.851 1027.083 620.688 C 1023.867 617.511 1020.148 612.740 1017.209 609.305 C 1015.741 607.589 1013.698 605.368 1012.350 603.556 C 1011.421 602.308 1011.067 601.824 1009.500 599.223 C 1006.272 593.866 1005.851 592.694 1004.409 589.832 C 1002.211 585.471 999.305 579.624 997.562 575.061 C 994.152 566.133 990.085 553.935 988.570 544.498 C 987.049 535.024 986.269 522.041 987.543 512.530 C 989.120 500.754 993.356 484.955 999.461 474.763 C 1002.553 469.602 1008.282 463.683 1013.050 460.015 C 1018.815 455.581 1028.336 450.024 1034.570 448.854 Z"/>
<path fill="#667f00" fill-rule="evenodd" stroke="#667f00" stroke-width="1" stroke-linecap="round" stroke-linejoin="round" d="M 1081.271 612.832 C 1100.382 605.821 1107.636 599.503 1110.127 602.848 C 1112.991 606.694 1108.781 621.271 1086.682 628.980 C 1065.609 636.330 1053.919 628.109 1053.650 623.544 C 1053.412 619.505 1062.729 619.634 1081.271 612.832 Z"/>
<path fill="#789600" fill-rule="evenodd" stroke="#789600" stroke-width="1" stroke-linecap="round" stroke-linejoin="round" d="M 1076.069 599.265 C 1097.130 590.765 1108.041 596.087 1110.029 601.954 C 1111.879 607.414 1106.719 615.916 1087.150 623.897 C 1066.668 632.250 1056.462 629.603 1053.971 624.107 C 1051.475 618.601 1055.514 607.560 1076.069 599.265 Z"/>
<path fill="#bbcc48" fill-rule="evenodd" stroke="#bbcc48" stroke-width="1" stroke-linecap="round" stroke-linejoin="round" d="M 1035.908 481.780 C 1038.682 483.455 1046.278 485.906 1046.500 499.893 C 1046.675 510.975 1041.439 510.384 1038.938 514.699 C 1036.627 518.687 1032.297 523.306 1030.550 527.571 C 1029.074 531.176 1028.225 536.399 1027.892 540.281 C 1027.334 546.786 1029.357 555.504 1028.935 562.019 C 1028.597 567.219 1030.926 577.576 1025.952 579.131 C 1024.045 579.727 1020.977 576.433 1020.224 575.733 C 1018.534 574.161 1014.276 567.105 1012.135 563.165 C 1009.960 559.163 1007.407 553.619 1005.897 549.320 C 1004.342 544.892 1002.816 538.790 1002.000 534.168 C 1001.058 528.836 999.965 521.608 1000.274 516.203 C 1000.589 510.719 1001.602 503.190 1004.102 498.300 C 1006.637 493.342 1011.868 487.545 1016.552 484.534 C 1019.533 482.618 1019.885 481.426 1027.727 480.707 C 1033.205 480.205 1034.817 481.121 1035.908 481.780 Z"/>
<path fill="#899c0f" fill-rule="evenodd" stroke="#899c0f" stroke-width="1" stroke-linecap="round" stroke-linejoin="round" d="M 924.494 460.898 C 896.466 453.041 867.661 476.521 843.254 536.910 C 819.084 596.712 824.312 631.600 848.711 646.949 C 872.891 662.161 917.432 660.194 949.461 604.877 C 992.328 530.841 961.307 471.219 924.494 460.898 Z"/>
<path fill="#9db022" fill-rule="evenodd" stroke="#9db022" stroke-width="1" stroke-linecap="round" stroke-linejoin="round" d="M 913.645 459.346 C 908.850 458.451 900.462 459.522 895.078 461.038 C 884.834 463.922 871.979 470.870 863.660 477.505 C 852.234 486.618 840.205 502.531 832.480 514.938 C 828.852 520.766 825.149 529.222 822.778 535.665 C 820.787 541.075 818.814 548.536 817.647 554.181 C 816.745 558.545 815.864 564.442 815.564 568.888 C 815.318 572.538 815.366 573.947 815.605 581.083 C 815.956 591.564 815.933 593.650 816.786 598.956 C 817.668 604.437 819.434 611.688 821.427 616.870 C 823.127 621.287 826.000 626.979 828.678 630.881 C 831.019 634.292 834.603 638.597 837.794 641.230 C 843.806 646.190 853.832 652.439 860.467 653.912 C 868.139 655.615 881.738 653.928 890.403 651.456 C 895.394 650.032 901.589 646.683 905.952 643.871 C 910.952 640.648 916.941 635.345 921.188 631.179 C 924.425 628.004 928.173 623.232 931.134 619.797 C 932.612 618.081 934.670 615.861 936.028 614.048 C 936.963 612.800 937.320 612.316 938.899 609.715 C 942.149 604.360 942.575 603.186 944.028 600.324 C 946.241 595.963 949.169 590.117 950.925 585.553 C 954.359 576.628 958.456 564.430 959.982 554.990 C 961.514 545.517 962.300 532.531 961.018 523.022 C 959.429 511.240 955.150 495.436 949.011 485.254 C 945.894 480.085 940.120 474.171 935.323 470.507 C 929.510 466.066 919.916 460.516 913.645 459.346 Z"/>
<path fill="#667f00" fill-rule="evenodd" stroke="#667f00" stroke-width="1" stroke-linecap="round" stroke-linejoin="round" d="M 866.601 623.323 C 847.348 616.312 840.027 609.963 837.534 613.339 C 834.676 617.210 838.971 631.760 861.151 639.471 C 882.381 646.853 894.160 638.633 894.425 634.036 C 894.659 629.970 885.278 630.125 866.601 623.323 Z"/>
<path fill="#789600" fill-rule="evenodd" stroke="#789600" stroke-width="1" stroke-linecap="round" stroke-linejoin="round" d="M 871.841 609.756 C 850.616 601.223 839.621 606.531 837.632 612.446 C 835.788 617.931 841.021 626.411 860.679 634.389 C 881.326 642.768 891.608 640.142 894.102 634.599 C 896.590 629.068 892.474 618.051 871.841 609.756 Z"/>
<path fill="#bbcc48" fill-rule="evenodd" stroke="#bbcc48" stroke-width="1" stroke-linecap="round" stroke-linejoin="round" d="M 912.298 492.271 C 909.516 493.945 901.850 496.371 901.628 510.384 C 901.452 521.483 906.726 520.877 909.245 525.191 C 911.573 529.180 915.933 533.792 917.694 538.063 C 919.179 541.665 920.037 546.890 920.372 550.772 C 920.934 557.277 918.896 565.995 919.322 572.510 C 919.662 577.712 917.355 588.057 922.326 589.622 C 924.242 590.226 927.337 586.926 928.096 586.224 C 929.795 584.655 934.087 577.599 936.244 573.657 C 938.434 569.656 941.007 564.112 942.528 559.812 C 944.095 555.385 945.632 549.283 946.454 544.659 C 947.403 539.328 948.504 532.100 948.192 526.694 C 947.876 521.209 946.849 513.677 944.337 508.792 C 941.781 503.824 936.503 498.033 931.796 495.026 C 928.789 493.106 928.432 491.918 920.538 491.199 C 915.021 490.696 913.397 491.610 912.298 492.271 Z"/>
<g id="Layer_6">
<path fill="#1c2b02" fill-rule="evenodd" stroke="none" d="M 726.922 137.275 C 726.922 137.275 726.922 137.275 726.922 137.275 C 725.219 138.363 722.949 139.813 721.247 140.901 C 721.247 140.901 721.247 140.901 721.247 140.901 C 720.157 142.755 718.937 145.384 717.616 147.080 C 714.014 151.700 707.648 156.432 703.342 160.403 C 692.752 170.167 678.025 182.540 667.808 192.693 C 659.596 200.852 649.205 212.286 641.623 221.032 C 637.953 225.266 632.882 230.807 629.785 235.477 C 627.614 238.749 625.038 243.361 623.605 247.017 C 622.115 250.821 620.363 256.115 620.180 260.196 C 620.124 261.455 620.701 264.365 620.701 264.365 C 621.282 262.601 621.946 260.208 622.637 258.483 C 623.837 255.488 625.759 251.624 627.328 248.804 C 629.989 244.019 633.902 237.826 637.177 233.437 C 640.617 228.827 645.742 223.090 649.716 218.931 C 654.321 214.110 660.857 208.067 665.869 203.671 C 670.447 199.655 676.773 194.554 681.604 190.846 C 688.679 185.415 698.369 178.506 705.746 173.494 C 709.367 171.033 714.283 167.880 718.002 165.571 C 723.723 162.020 737.301 154.115 737.303 154.114 C 734.189 149.062 726.923 137.276 726.922 137.275 C 726.922 137.275 726.922 137.275 726.922 137.275 Z"/>
<path fill="none" stroke="#1c2b02" stroke-width="1" stroke-linecap="round" stroke-linejoin="round" d="M 737.303 154.114 C 737.303 154.114 737.303 154.114 737.303 154.114 C 737.301 154.115 723.723 162.020 718.002 165.571 C 714.283 167.880 709.367 171.033 705.746 173.494 C 698.369 178.506 688.679 185.415 681.604 190.846 C 676.773 194.554 670.447 199.655 665.869 203.671 C 660.857 208.067 654.321 214.110 649.716 218.931 C 645.742 223.090 640.617 228.827 637.177 233.437 C 633.902 237.826 629.989 244.019 627.328 248.804 C 625.759 251.624 623.837 255.488 622.637 258.483 C 621.946 260.208 621.282 262.601 620.701 264.365 C 620.701 264.365 620.701 264.365 620.701 264.365 C 620.701 264.365 620.124 261.455 620.180 260.196 C 620.363 256.115 622.115 250.821 623.605 247.017 C 625.038 243.361 627.614 238.749 629.785 235.477 C 632.882 230.807 637.953 225.266 641.623 221.032 C 649.205 212.286 659.596 200.852 667.808 192.693 C 678.025 182.540 692.752 170.167 703.342 160.403 C 707.648 156.432 714.014 151.700 717.616 147.080 C 718.937 145.384 720.157 142.755 721.247 140.901 C 722.949 139.813 725.219 138.363 726.922 137.275 C 726.922 137.275 726.922 137.275 726.922 137.275 C 726.923 137.276 734.189 149.062 737.303 154.114 M 721.247 140.901 C 721.247 140.901 721.247 140.901 721.247 140.901 M 726.922 137.275 C 726.922 137.275 726.922 137.275 726.922 137.275 "/>
<path fill="#5e7d2d" fill-rule="evenodd" stroke="none" d="M 108.044 177.824 C 108.044 177.824 108.044 177.824 108.044 177.824 C 108.920 179.039 110.027 180.706 110.966 181.872 C 112.178 183.378 113.983 185.223 115.276 186.660 C 115.276 186.660 115.276 186.660 115.276 186.660 C 123.036 186.218 133.381 185.588 141.144 185.187 C 157.814 184.326 180.036 182.746 196.728 182.651 C 231.412 182.454 312.235 187.302 312.247 187.302 C 310.087 185.412 307.530 182.439 305.046 181.001 C 298.860 177.420 289.201 175.731 282.242 174.100 C 273.360 172.018 261.325 169.950 252.237 169.149 C 240.755 168.138 225.343 168.724 213.817 168.820 C 205.901 168.886 195.343 169.040 187.437 169.454 C 174.245 170.145 156.689 171.708 143.555 173.132 C 132.872 174.290 108.047 177.824 108.044 177.824 C 108.044 177.824 108.044 177.824 108.044 177.824 Z"/>
<path fill="none" stroke="#5e7d2d" stroke-width="1" stroke-linecap="round" stroke-linejoin="round" d="M 312.247 187.302 C 312.247 187.302 312.247 187.302 312.247 187.302 C 312.235 187.302 231.412 182.454 196.728 182.651 C 180.036 182.746 157.814 184.326 141.144 185.187 C 133.381 185.588 123.036 186.218 115.276 186.660 C 113.983 185.223 112.178 183.378 110.966 181.872 C 110.027 180.706 108.920 179.039 108.044 177.824 C 108.044 177.824 108.044 177.824 108.044 177.824 C 108.047 177.824 132.872 174.290 143.555 173.132 C 156.689 171.708 174.245 170.145 187.437 169.454 C 195.343 169.040 205.901 168.886 213.817 168.820 C 225.343 168.724 240.755 168.138 252.237 169.149 C 261.325 169.950 273.360 172.018 282.242 174.100 C 289.201 175.731 298.860 177.420 305.046 181.001 C 307.530 182.439 310.087 185.412 312.247 187.302 M 115.276 186.660 C 115.276 186.660 115.276 186.660 115.276 186.660 M 108.044 177.824 C 108.044 177.824 108.044 177.824 108.044 177.824 "/>
<path fill="#769c35" fill-rule="evenodd" stroke="#769c35" stroke-width="1" stroke-linecap="round" stroke-linejoin="round" d="M 445.710 62.492 C 453.775 65.041 464.395 68.853 472.343 71.748 C 481.390 75.043 493.400 79.588 502.329 83.191 C 510.613 86.534 521.780 90.774 529.730 94.848 C 536.928 98.537 546.831 103.338 552.805 108.789 C 555.804 111.526 558.610 116.277 561.097 119.486 C 561.097 119.486 561.097 119.486 561.097 119.486 C 541.664 112.167 515.793 102.300 496.320 95.089 C 477.213 88.013 451.651 78.812 432.501 71.854 C 429.572 70.790 425.667 69.375 422.738 68.313 C 422.738 68.313 422.738 68.313 422.738 68.313 C 421.610 65.887 419.732 62.794 418.979 60.228 C 418.502 58.600 418.408 56.311 418.144 54.636 C 418.144 54.636 437.511 59.901 445.710 62.492 Z"/>
<path fill="#779d38" fill-rule="evenodd" stroke="#779d38" stroke-width="1" stroke-linecap="round" stroke-linejoin="round" d="M 354.202 226.334 C 347.400 227.013 338.319 228.108 331.658 229.643 C 321.677 231.944 308.613 236.187 299.186 240.191 C 288.301 244.815 274.433 252.485 264.438 258.806 C 249.083 268.517 230.040 283.621 215.948 295.089 C 204.608 304.318 179.375 327.300 179.375 327.300 C 181.892 328.105 185.139 329.682 187.764 329.984 C 194.511 330.761 204.030 330.041 210.244 327.300 C 218.918 323.475 226.533 312.330 233.731 306.162 C 247.209 294.613 264.516 278.109 279.699 268.918 C 298.760 257.379 327.615 248.743 348.066 239.900 C 356.546 236.233 367.887 231.418 376.262 227.517 C 377.875 226.765 379.996 225.700 381.597 224.922 C 381.597 224.922 381.597 224.922 381.597 224.922 C 381.569 224.911 362.390 225.516 354.202 226.334 Z"/>
<path fill="#456117" fill-rule="evenodd" stroke="none" d="M 703.314 172.507 C 712.223 166.656 724.499 159.480 733.578 153.896 C 733.578 153.895 727.004 143.426 724.186 138.938 C 724.182 138.940 696.732 153.820 684.530 159.288 C 665.932 167.622 640.501 177.401 621.044 183.465 C 599.499 190.180 570.105 196.943 547.958 201.281 C 530.344 204.732 506.641 208.270 488.798 210.211 C 473.294 211.898 452.521 213.237 436.934 213.745 C 418.386 214.350 393.573 214.989 375.076 213.492 C 373.393 213.355 371.126 213.183 369.498 212.731 C 364.974 211.474 359.512 208.218 355.301 206.140 C 346.973 202.029 336.240 195.821 327.922 191.689 C 321.780 188.639 313.732 184.147 307.220 181.998 C 293.612 177.504 274.519 174.544 260.237 173.361 C 239.160 171.616 210.862 173.654 189.761 175.088 C 170.098 176.425 144.061 180.211 124.468 182.343 C 121.566 182.659 117.596 182.560 114.795 183.380 C 114.195 183.555 113.464 183.976 112.893 184.232 C 112.895 184.233 121.280 192.869 125.447 195.871 C 129.692 198.929 135.951 202.150 140.747 204.240 C 147.104 207.011 155.971 209.823 162.716 211.432 C 170.958 213.399 182.207 214.885 190.649 215.616 C 217.139 217.911 252.687 216.243 279.275 216.482 C 300.304 216.672 328.348 217.567 349.372 217.063 C 356.217 216.899 365.321 215.926 372.168 215.916 C 373.520 215.914 375.342 215.829 376.671 216.077 C 377.571 216.244 378.670 216.853 379.566 217.042 C 381.460 217.440 384.067 217.407 385.999 217.524 C 395.253 218.084 407.607 218.622 416.876 218.811 C 433.230 219.144 455.057 219.328 471.399 218.624 C 485.350 218.023 503.896 216.228 517.789 214.837 C 529.836 213.631 545.900 211.931 557.868 210.104 C 571.171 208.073 588.828 204.793 601.948 201.802 C 614.580 198.922 631.206 194.184 643.662 190.621 C 652.216 188.173 663.530 184.600 672.045 182.020 C 672.044 182.021 664.138 190.224 660.864 193.846 C 654.423 200.973 645.603 210.335 640.007 218.143 C 635.760 224.069 631.081 232.630 627.536 239.000 C 626.872 240.193 625.417 243.027 625.417 243.027 C 630.835 236.391 637.605 227.143 643.479 220.906 C 652.043 211.814 664.490 200.655 674.249 192.860 C 682.566 186.216 694.417 178.351 703.314 172.507 Z"/>
<path fill="none" stroke="#456117" stroke-width="1" stroke-linecap="round" stroke-linejoin="round" d="M 733.578 153.896 C 733.578 153.896 733.578 153.896 733.578 153.896 C 724.499 159.480 712.223 166.656 703.314 172.507 C 694.417 178.351 682.566 186.216 674.249 192.860 C 664.490 200.655 652.043 211.814 643.479 220.906 C 637.605 227.143 630.835 236.391 625.417 243.027 C 625.417 243.027 626.872 240.193 627.536 239.000 C 631.081 232.630 635.760 224.069 640.007 218.143 C 645.603 210.335 654.423 200.973 660.864 193.846 C 664.138 190.224 672.044 182.021 672.045 182.020 C 672.045 182.020 672.045 182.020 672.045 182.020 C 663.530 184.600 652.216 188.173 643.662 190.621 C 631.206 194.184 614.580 198.922 601.948 201.802 C 588.828 204.793 571.171 208.073 557.868 210.104 C 545.900 211.931 529.836 213.631 517.789 214.837 C 503.896 216.228 485.350 218.023 471.399 218.624 C 455.057 219.328 433.230 219.144 416.876 218.811 C 407.607 218.622 395.253 218.084 385.999 217.524 C 384.067 217.407 381.460 217.440 379.566 217.042 C 378.670 216.853 377.571 216.244 376.671 216.077 C 375.342 215.829 373.520 215.914 372.168 215.916 C 365.321 215.926 356.217 216.899 349.372 217.063 C 328.348 217.567 300.304 216.672 279.275 216.482 C 252.687 216.243 217.139 217.911 190.649 215.616 C 182.207 214.885 170.958 213.399 162.716 211.432 C 155.971 209.823 147.104 207.011 140.747 204.240 C 135.951 202.150 129.692 198.929 125.447 195.871 C 121.280 192.869 112.895 184.233 112.893 184.232 C 112.893 184.232 112.893 184.232 112.893 184.232 C 113.464 183.976 114.195 183.555 114.795 183.380 C 117.596 182.560 121.566 182.659 124.468 182.343 C 144.061 180.211 170.098 176.425 189.761 175.088 C 210.862 173.654 239.160 171.616 260.237 173.361 C 274.519 174.544 293.612 177.504 307.220 181.998 C 313.732 184.147 321.780 188.639 327.922 191.689 C 336.240 195.821 346.973 202.029 355.301 206.140 C 359.512 208.218 364.974 211.474 369.498 212.731 C 371.126 213.183 373.393 213.355 375.076 213.492 C 393.573 214.989 418.386 214.350 436.934 213.745 C 452.521 213.237 473.294 211.898 488.798 210.211 C 506.641 208.270 530.344 204.732 547.958 201.281 C 570.105 196.943 599.499 190.180 621.044 183.465 C 640.501 177.401 665.932 167.622 684.530 159.288 C 696.732 153.820 724.182 138.940 724.186 138.938 C 724.186 138.938 724.186 138.938 724.186 138.938 C 727.004 143.426 733.578 153.895 733.578 153.896 "/>
<path fill="#5e7d2d" fill-rule="evenodd" stroke="none" d="M 439.896 67.171 C 433.996 65.716 426.012 64.288 420.063 63.053 C 420.063 63.054 422.602 68.761 423.747 71.181 C 425.035 73.902 426.486 77.696 428.191 80.177 C 431.797 85.427 438.171 91.225 442.930 95.458 C 447.421 99.451 453.825 104.320 458.862 107.596 C 465.009 111.595 473.751 116.044 480.321 119.301 C 490.214 124.205 503.869 129.756 513.962 134.235 C 528.566 140.717 548.011 149.418 562.643 155.835 C 571.752 159.829 583.880 165.198 593.058 169.030 C 599.602 171.762 608.441 175.127 614.986 177.856 C 617.292 178.817 620.334 180.178 622.640 181.140 C 623.176 181.364 623.895 181.652 624.432 181.871 C 624.432 181.871 624.099 181.334 623.957 181.103 C 618.977 176.187 611.853 170.077 607.357 164.715 C 604.485 161.292 601.489 156.093 598.802 152.523 C 594.817 147.230 589.471 140.159 584.891 135.371 C 580.602 130.887 574.199 125.600 569.432 121.627 C 564.931 117.877 558.992 112.738 554.040 109.607 C 546.792 105.024 536.241 100.440 528.386 97.000 C 519.536 93.123 507.428 88.684 498.334 85.419 C 489.296 82.174 477.135 78.152 467.966 75.300 C 459.594 72.696 448.407 69.271 439.896 67.171 M 623.957 181.103 C 623.957 181.103 623.957 181.103 623.957 181.103 Z"/>
<path fill="none" stroke="#5e7d2d" stroke-width="1" stroke-linecap="round" stroke-linejoin="round" d="M 420.063 63.053 C 420.063 63.053 420.063 63.053 420.063 63.053 C 426.012 64.288 433.996 65.716 439.896 67.171 C 448.407 69.271 459.594 72.696 467.966 75.300 C 477.135 78.152 489.296 82.174 498.334 85.419 C 507.428 88.684 519.536 93.123 528.386 97.000 C 536.241 100.440 546.792 105.024 554.040 109.607 C 558.992 112.738 564.931 117.877 569.432 121.627 C 574.199 125.600 580.602 130.887 584.891 135.371 C 589.471 140.159 594.817 147.230 598.802 152.523 C 601.489 156.093 604.485 161.292 607.357 164.715 C 611.853 170.077 618.977 176.187 623.957 181.103 C 623.957 181.103 623.957 181.103 623.957 181.103 C 624.099 181.334 624.432 181.871 624.432 181.871 C 624.432 181.871 624.432 181.871 624.432 181.871 C 623.895 181.652 623.176 181.364 622.640 181.140 C 620.334 180.178 617.292 178.817 614.986 177.856 C 608.441 175.127 599.602 171.762 593.058 169.030 C 583.880 165.198 571.752 159.829 562.643 155.835 C 548.011 149.418 528.566 140.717 513.962 134.235 C 503.869 129.756 490.214 124.205 480.321 119.301 C 473.751 116.044 465.009 111.595 458.862 107.596 C 453.825 104.320 447.421 99.451 442.930 95.458 C 438.171 91.225 431.797 85.427 428.191 80.177 C 426.486 77.696 425.035 73.902 423.747 71.181 C 422.602 68.761 420.063 63.054 420.063 63.053 "/>
<path fill="#5e7d2d" fill-rule="evenodd" stroke="#5e7d2d" stroke-width="1" stroke-linecap="round" stroke-linejoin="round" d="M 367.042 227.830 C 360.993 228.966 352.721 229.066 346.648 230.070 C 341.996 230.838 335.835 232.158 331.294 233.429 C 322.275 235.953 310.388 239.953 301.847 243.796 C 292.049 248.205 279.656 255.512 270.584 261.267 C 259.953 268.010 246.509 278.109 236.497 285.740 C 226.586 293.296 213.453 303.521 204.191 311.860 C 198.547 316.942 186.216 329.686 186.216 329.686 C 188.496 330.268 191.496 331.256 193.826 331.582 C 199.264 332.344 206.665 332.431 212.127 331.870 C 216.982 331.372 223.366 329.857 228.011 328.360 C 235.573 325.922 245.232 321.408 252.241 317.668 C 263.828 311.485 278.200 301.371 289.038 293.953 C 295.584 289.471 303.959 282.993 310.478 278.471 C 318.402 272.976 329.307 266.148 337.248 260.678 C 344.886 255.417 354.805 248.025 362.416 242.724 C 366.323 240.003 371.649 236.544 375.528 233.784 C 378.849 231.421 383.115 228.047 386.442 225.693 C 388.132 224.498 390.768 223.359 392.151 221.819 C 392.385 221.559 392.577 221.124 392.760 220.826 C 392.760 220.826 392.760 220.826 392.760 220.826 C 392.746 220.816 374.901 226.355 367.042 227.830 Z"/>
<path fill="#192902" fill-rule="evenodd" stroke="none" d="M 211.844 192.002 C 207.703 192.728 202.380 194.583 198.324 195.689 C 198.325 195.688 205.125 194.666 208.062 194.460 C 215.927 193.907 226.467 194.028 234.344 194.365 C 245.129 194.827 259.457 196.386 270.175 197.674 C 286.194 199.599 307.441 203.032 323.357 205.679 C 333.574 207.378 347.190 209.713 357.330 211.824 C 357.957 211.954 358.785 212.169 359.413 212.298 C 362.308 212.891 366.184 213.621 369.113 214.009 C 371.250 214.293 374.121 214.470 376.267 214.668 C 376.267 214.668 372.164 213.500 370.405 213.000 C 366.200 211.929 360.594 210.498 356.388 209.431 C 349.737 207.742 340.899 205.363 334.213 203.819 C 325.107 201.715 312.917 199.096 303.711 197.483 C 297.131 196.330 288.298 195.157 281.675 194.285 C 273.536 193.214 262.691 191.634 254.501 191.088 C 250.192 190.801 244.429 190.795 240.111 190.773 C 235.375 190.748 229.054 190.732 224.323 190.962 C 220.571 191.143 215.544 191.352 211.844 192.002 M 370.405 213.000 C 370.405 213.000 370.405 213.000 370.405 213.000 Z"/>
<path fill="none" stroke="#192902" stroke-width="1" stroke-linecap="round" stroke-linejoin="round" d="M 198.324 195.689 C 198.324 195.689 198.324 195.689 198.324 195.689 C 202.380 194.583 207.703 192.728 211.844 192.002 C 215.544 191.352 220.571 191.143 224.323 190.962 C 229.054 190.732 235.375 190.748 240.111 190.773 C 244.429 190.795 250.192 190.801 254.501 191.088 C 262.691 191.634 273.536 193.214 281.675 194.285 C 288.298 195.157 297.131 196.330 303.711 197.483 C 312.917 199.096 325.107 201.715 334.213 203.819 C 340.899 205.363 349.737 207.742 356.388 209.431 C 360.594 210.498 366.200 211.929 370.405 213.000 C 370.405 213.000 370.405 213.000 370.405 213.000 C 372.164 213.500 376.267 214.668 376.267 214.668 C 376.267 214.668 376.267 214.668 376.267 214.668 C 374.121 214.470 371.250 214.293 369.113 214.009 C 366.184 213.621 362.308 212.891 359.413 212.298 C 358.785 212.169 357.957 211.954 357.330 211.824 C 347.190 209.713 333.574 207.378 323.357 205.679 C 307.441 203.032 286.194 199.599 270.175 197.674 C 259.457 196.386 245.129 194.827 234.344 194.365 C 226.467 194.028 215.927 193.907 208.062 194.460 C 205.125 194.666 198.325 195.688 198.324 195.689 "/>
<path fill="#335501" fill-rule="evenodd" stroke="none" d="M 486.185 102.380 C 485.779 102.132 485.400 101.596 485.064 101.260 C 485.064 101.260 486.823 100.927 487.586 100.939 C 491.311 100.997 496.140 102.519 499.755 103.421 C 502.524 104.112 506.203 105.118 508.882 106.103 C 510.704 106.773 513.044 107.891 514.807 108.705 C 520.637 111.398 528.375 115.081 534.026 118.132 C 538.557 120.579 544.411 124.177 548.816 126.846 C 555.402 130.838 564.128 136.253 570.588 140.446 C 576.116 144.033 583.474 148.844 588.809 152.711 C 593.581 156.170 599.665 161.153 604.317 164.772 C 606.994 166.855 610.597 169.589 613.239 171.716 C 615.496 173.532 618.528 175.932 620.663 177.888 C 622.007 179.118 624.957 182.182 624.957 182.182 C 621.911 181.025 618.622 177.979 615.869 176.238 C 611.852 173.699 606.364 170.526 602.341 167.994 C 597.770 165.118 591.772 161.131 587.247 158.182 C 579.935 153.420 570.251 146.969 562.892 142.279 C 556.323 138.094 547.531 132.565 540.847 128.566 C 536.217 125.795 529.999 122.176 525.269 119.580 C 520.836 117.147 514.821 114.097 510.325 111.783 C 507.311 110.232 503.405 107.913 500.253 106.666 C 497.608 105.620 493.874 104.831 491.157 103.986 C 490.179 103.682 488.884 103.244 487.908 102.930 C 487.392 102.764 486.647 102.664 486.185 102.380 Z"/>
<path fill="none" stroke="#335501" stroke-width="1" stroke-linecap="round" stroke-linejoin="round" d="M 485.064 101.260 C 485.064 101.260 485.064 101.260 485.064 101.260 C 485.400 101.596 485.779 102.132 486.185 102.380 C 486.647 102.664 487.392 102.764 487.908 102.930 C 488.884 103.244 490.179 103.682 491.157 103.986 C 493.874 104.831 497.608 105.620 500.253 106.666 C 503.405 107.913 507.311 110.232 510.325 111.783 C 514.821 114.097 520.836 117.147 525.269 119.580 C 529.999 122.176 536.217 125.795 540.847 128.566 C 547.531 132.565 556.323 138.094 562.892 142.279 C 570.251 146.969 579.935 153.420 587.247 158.182 C 591.772 161.131 597.770 165.118 602.341 167.994 C 606.364 170.526 611.852 173.699 615.869 176.238 C 618.622 177.979 621.911 181.025 624.957 182.182 C 624.957 182.182 622.007 179.118 620.663 177.888 C 618.528 175.932 615.496 173.532 613.239 171.716 C 610.597 169.589 606.994 166.855 604.317 164.772 C 599.665 161.153 593.581 156.170 588.809 152.711 C 583.474 148.844 576.116 144.033 570.588 140.446 C 564.128 136.253 555.402 130.838 548.816 126.846 C 544.411 124.177 538.557 120.579 534.026 118.132 C 528.375 115.081 520.637 111.398 514.807 108.705 C 513.044 107.891 510.704 106.773 508.882 106.103 C 506.203 105.118 502.524 104.112 499.755 103.421 C 496.140 102.519 491.311 100.997 487.586 100.939 C 486.823 100.927 485.064 101.260 485.064 101.260 "/>
<path fill="#355701" fill-rule="evenodd" stroke="none" d="M 257.128 292.809 C 256.159 293.753 255.014 295.153 254.108 296.158 C 254.108 296.158 253.388 296.444 253.151 296.277 C 252.925 296.118 252.952 295.657 252.942 295.380 C 252.932 295.099 252.981 294.713 253.092 294.453 C 253.919 292.514 256.365 290.780 257.816 289.251 C 260.135 286.808 263.173 283.479 265.739 281.298 C 270.822 276.978 278.309 272.097 283.967 268.563 C 291.743 263.707 302.568 257.985 310.736 253.822 C 319.268 249.473 330.872 244.129 339.628 240.251 C 346.631 237.150 356.031 233.143 363.187 230.411 C 367.154 228.897 372.519 227.083 376.544 225.732 C 379.130 224.863 382.580 223.701 385.200 222.939 C 386.413 222.587 388.057 222.214 389.272 221.867 C 390.322 221.566 391.707 221.115 392.750 220.793 C 392.750 220.793 390.930 222.133 390.930 222.133 C 388.446 223.274 385.093 224.703 382.618 225.863 C 378.679 227.708 373.547 230.422 369.599 232.249 C 362.704 235.440 353.266 239.148 346.355 242.304 C 338.359 245.955 327.805 251.062 319.960 255.025 C 314.642 257.712 307.646 261.478 302.392 264.285 C 296.041 267.679 287.497 272.075 281.289 275.723 C 277.910 277.709 273.477 280.484 270.233 282.684 C 267.783 284.346 264.576 286.656 262.248 288.485 C 260.668 289.728 258.569 291.407 257.128 292.809 Z"/>
<path fill="none" stroke="#355701" stroke-width="1" stroke-linecap="round" stroke-linejoin="round" d="M 254.108 296.158 C 254.108 296.158 254.108 296.158 254.108 296.158 C 255.014 295.153 256.159 293.753 257.128 292.809 C 258.569 291.407 260.668 289.728 262.248 288.485 C 264.576 286.656 267.783 284.346 270.233 282.684 C 273.477 280.484 277.910 277.709 281.289 275.723 C 287.497 272.075 296.041 267.679 302.392 264.285 C 307.646 261.478 314.642 257.712 319.960 255.025 C 327.805 251.062 338.359 245.955 346.355 242.304 C 353.266 239.148 362.704 235.440 369.599 232.249 C 373.547 230.422 378.679 227.708 382.618 225.863 C 385.093 224.703 388.446 223.274 390.930 222.133 C 390.930 222.133 392.750 220.793 392.750 220.793 C 392.750 220.793 392.750 220.793 392.750 220.793 C 391.707 221.115 390.322 221.566 389.272 221.867 C 388.057 222.214 386.413 222.587 385.200 222.939 C 382.580 223.701 379.130 224.863 376.544 225.732 C 372.519 227.083 367.154 228.897 363.187 230.411 C 356.031 233.143 346.631 237.150 339.628 240.251 C 330.872 244.129 319.268 249.473 310.736 253.822 C 302.568 257.985 291.743 263.707 283.967 268.563 C 278.309 272.097 270.822 276.978 265.739 281.298 C 263.173 283.479 260.135 286.808 257.816 289.251 C 256.365 290.780 253.919 292.514 253.092 294.453 C 252.981 294.713 252.932 295.099 252.942 295.380 C 252.952 295.657 252.925 296.118 253.151 296.277 C 253.388 296.444 254.108 296.158 254.108 296.158 "/>
</g>
<g id="Layer_5">
<path fill="#505052" fill-rule="evenodd" stroke="#505052" stroke-width="1" stroke-linecap="round" stroke-linejoin="round" d="M 626.728 263.373 C 604.015 255.555 550.245 265.351 526.823 350.618 C 508.739 416.454 538.525 441.486 555.513 448.930 C 573.224 456.691 617.606 463.527 650.666 400.485 C 693.761 318.308 650.562 271.576 626.728 263.373 Z"/>
<path fill="#000000" fill-rule="evenodd" stroke="#000000" stroke-width="1" stroke-linecap="round" stroke-linejoin="round" d="M 631.397 262.594 C 608.721 252.552 547.800 257.553 522.154 345.171 C 503.195 409.945 536.215 434.580 553.178 441.537 C 570.636 448.697 611.678 453.532 645.218 392.704 C 687.337 316.318 653.063 272.189 631.397 262.594 Z"/>
<path fill="#85868a" fill-rule="evenodd" stroke="#85868a" stroke-width="1" stroke-linecap="round" stroke-linejoin="round" d="M 619.070 296.431 C 616.059 288.347 610.288 286.871 605.215 285.133 C 600.064 283.368 592.279 283.997 587.072 285.586 C 579.843 287.793 571.373 294.124 566.085 299.524 C 559.688 306.058 553.844 317.113 549.977 325.399 C 548.017 329.600 545.658 335.431 544.951 340.013 C 544.183 344.989 540.548 354.638 545.422 356.787 C 548.515 358.152 552.038 353.240 554.465 351.162 C 556.876 349.096 559.286 345.537 561.370 343.142 C 563.811 340.335 566.839 336.370 569.557 333.831 C 572.856 330.750 575.034 327.951 581.542 324.733 C 588.518 321.283 592.324 321.251 597.102 320.486 C 600.960 319.868 606.497 321.258 610.107 319.763 C 612.094 318.941 614.414 317.118 615.630 315.194 C 618.864 310.075 622.282 305.057 619.070 296.431 Z"/>
<path fill="#505052" fill-rule="evenodd" stroke="#505052" stroke-width="1" stroke-linecap="round" stroke-linejoin="round" d="M 456.779 231.220 C 433.505 225.278 380.711 239.418 364.308 326.309 C 351.643 393.399 383.368 415.923 400.905 421.959 C 419.190 428.253 463.981 431.453 491.799 365.929 C 528.061 280.517 481.202 237.457 456.779 231.220 Z"/>
<path fill="#000000" fill-rule="evenodd" stroke="#000000" stroke-width="1" stroke-linecap="round" stroke-linejoin="round" d="M 461.369 230.065 C 437.951 221.902 377.640 231.845 359.211 321.260 C 345.588 387.362 380.504 409.228 397.977 414.781 C 415.960 420.496 457.259 421.974 485.736 358.617 C 521.497 279.056 483.744 237.864 461.369 230.065 Z"/>
<path fill="#85868a" fill-rule="evenodd" stroke="#85868a" stroke-width="1" stroke-linecap="round" stroke-linejoin="round" d="M 451.837 264.792 C 448.178 256.980 442.307 255.979 437.108 254.660 C 431.831 253.320 424.123 254.581 419.063 256.589 C 412.038 259.376 404.111 266.376 399.280 272.189 C 393.437 279.221 388.512 290.716 385.332 299.289 C 383.720 303.636 381.844 309.639 381.512 314.264 C 381.152 319.285 378.315 329.198 383.347 330.944 C 386.541 332.052 389.653 326.870 391.902 324.601 C 394.137 322.346 396.249 318.602 398.131 316.045 C 400.336 313.050 403.032 308.851 405.534 306.099 C 408.571 302.759 410.513 299.793 416.738 296.055 C 423.410 292.049 427.201 291.707 431.900 290.556 C 435.696 289.626 441.327 290.560 444.804 288.777 C 446.717 287.796 448.881 285.790 449.936 283.774 C 452.743 278.408 455.741 273.128 451.837 264.792 Z"/>
</g>
</g>
</svg>
